<svg width="670" height="354" viewBox="0 0 670 354" fill="none" xmlns="http://www.w3.org/2000/svg">
<circle cx="176.893" cy="177.107" r="101.994" stroke="white" stroke-opacity="0.1" stroke-width="35"/>
<circle cx="176.893" cy="177.107" r="159.393" stroke="white" stroke-opacity="0.1" stroke-width="35"/>
<circle cx="176.893" cy="177.107" r="49.1822" stroke="white" stroke-opacity="0.1" stroke-width="30"/>
<circle cx="34.4393" cy="45.0904" r="9.39252" fill="white"/>
<circle cx="34.4393" cy="74.3116" r="9.39252" fill="white"/>
<circle cx="34.4393" cy="103.533" r="9.39252" fill="white"/>
<circle cx="34.4393" cy="132.754" r="9.39252" fill="white"/>
<circle cx="34.4393" cy="161.975" r="9.39252" fill="white"/>
<circle cx="34.4393" cy="191.196" r="9.39252" fill="white"/>
<circle cx="34.4393" cy="220.417" r="9.39252" fill="white"/>
<circle cx="660.607" cy="45.0904" r="9.39252" fill="white"/>
<circle cx="660.607" cy="74.3116" r="9.39252" fill="white"/>
<circle cx="660.607" cy="103.533" r="9.39252" fill="white"/>
<circle cx="660.607" cy="132.754" r="9.39252" fill="white"/>
<circle cx="660.607" cy="161.975" r="9.39252" fill="white"/>
<circle cx="660.607" cy="191.196" r="9.39252" fill="white"/>
<circle cx="660.607" cy="220.417" r="9.39252" fill="white"/>
<rect x="176.371" y="13.782" width="7.3053" height="31.3084" rx="1" fill="white"/>
<rect x="176.371" y="55.5265" width="7.3053" height="31.3084" rx="1" fill="white"/>
<rect x="176.371" y="97.2711" width="7.3053" height="31.3084" rx="1" fill="white"/>
<rect x="176.371" y="139.016" width="7.3053" height="31.3084" rx="1" fill="white"/>
<rect x="176.371" y="180.76" width="7.3053" height="31.3084" rx="1" fill="white"/>
<rect x="176.371" y="222.505" width="7.3053" height="31.3084" rx="1" fill="white"/>
</svg>
