<svg width="38" height="38" viewBox="0 0 38 38" fill="none" xmlns="http://www.w3.org/2000/svg">
<path d="M33.9455 7.6047H35.1196C35.5292 7.6047 35.8613 7.27906 35.8613 6.8775C35.8613 6.47594 35.5292 6.1503 35.1196 6.1503H32.3011C31.8916 6.1503 31.5594 6.47594 31.5594 6.8775V9.64085C31.5594 10.0424 31.8916 10.3681 32.3011 10.3681C32.7107 10.3681 33.0428 10.0424 33.0428 9.64085V8.84072C35.2933 11.7947 36.5166 15.3788 36.5166 19.1066C36.5166 28.5764 28.6587 36.2807 19 36.2807C9.34128 36.2807 1.4834 28.5764 1.4834 19.1066C1.4834 9.63671 9.34128 1.93248 19 1.93248C19.7143 1.93248 20.4333 1.97503 21.137 2.05887C21.5431 2.10701 21.9134 1.82348 21.9628 1.42475C22.0123 1.0261 21.7227 0.663524 21.316 0.615092C20.5531 0.524193 19.774 0.478088 19 0.478088C13.9249 0.478088 9.15355 2.41578 5.56498 5.93425C1.97634 9.45265 0 14.1307 0 19.1066C0 24.0824 1.97634 28.7605 5.56498 32.2789C9.15355 35.7974 13.9249 37.735 19 37.735C24.0751 37.735 28.8464 35.7974 32.435 32.2789C36.0237 28.7605 38 24.0824 38 19.1066C38 14.9077 36.5693 10.8767 33.9455 7.6047Z" fill="#7002FE"/>
<path d="M8.04539 11.4596C7.69923 11.2448 7.24108 11.3459 7.02191 11.6851C5.32868 14.307 4.57912 17.4603 4.91133 20.5641C5.24843 23.7139 6.69438 26.6842 8.98282 28.9279C11.7445 31.6357 15.3723 32.9896 19.0001 32.9896C22.6279 32.9896 26.2556 31.6357 29.0174 28.9279C34.5409 23.5124 34.5409 14.7007 29.0174 9.28523C26.7324 7.04502 23.7078 5.62786 20.5006 5.2948C17.3408 4.96647 14.1281 5.69563 11.4549 7.34761C11.1083 7.56177 11.0046 8.01081 11.2229 8.35056C11.4413 8.69038 11.8993 8.79212 12.2459 8.57803C17.2848 5.46417 23.75 6.17776 27.9684 10.3136C32.9135 15.1621 32.9135 23.051 27.9684 27.8995C23.0233 32.748 14.9769 32.748 10.0318 27.8995C5.87176 23.8208 5.13302 17.3288 8.27531 12.4632C8.49434 12.1238 8.39146 11.6745 8.04539 11.4596Z" fill="#7002FE"/>
<path d="M28.6422 19.8461H29.5568C29.9664 19.8461 30.2985 19.5204 30.2985 19.1186C30.2985 18.7169 29.9664 18.3911 29.5568 18.3911H28.6422C28.2326 18.3911 27.9005 18.7169 27.9005 19.1186C27.9005 19.5204 28.2325 19.8461 28.6422 19.8461Z" fill="#7002FE"/>
<path d="M7.70145 19.0951C7.70145 19.4968 8.03358 19.8226 8.44315 19.8226H9.35781C9.76738 19.8226 10.0995 19.4968 10.0995 19.0951C10.0995 18.6933 9.76738 18.3676 9.35781 18.3676H8.44315C8.03358 18.3676 7.70145 18.6933 7.70145 19.0951Z" fill="#7002FE"/>
<path d="M19.7537 9.6536V8.75644C19.7537 8.35471 19.4216 8.02893 19.012 8.02893C18.6024 8.02893 18.2703 8.35471 18.2703 8.75644V9.6536C18.2703 10.0553 18.6024 10.3811 19.012 10.3811C19.4216 10.3811 19.7537 10.0553 19.7537 9.6536Z" fill="#7002FE"/>
<path d="M18.2463 28.5604V29.4576C18.2463 29.8593 18.5784 30.1851 18.988 30.1851C19.3976 30.1851 19.7297 29.8593 19.7297 29.4576V28.5604C19.7297 28.1587 19.3976 27.8329 18.988 27.8329C18.5784 27.8329 18.2463 28.1586 18.2463 28.5604Z" fill="#7002FE"/>
<path d="M15.2823 14.4331C14.9926 14.1492 14.5231 14.1492 14.2333 14.4331C13.9437 14.7171 13.9437 15.1775 14.2333 15.4616L16.747 17.9261C16.5544 18.2781 16.4448 18.68 16.4448 19.1066C16.4448 20.4879 17.591 21.6118 19 21.6118C20.4089 21.6118 21.5551 20.4879 21.5551 19.1066C21.5551 18.68 21.4455 18.2781 21.253 17.9261L26.3249 12.9533C26.6146 12.6693 26.6146 12.2089 26.3249 11.9248C26.0352 11.6409 25.5657 11.6409 25.2759 11.9248L20.204 16.8976C19.845 16.7088 19.4351 16.6014 19 16.6014C18.5649 16.6014 18.155 16.7088 17.796 16.8976L15.2823 14.4331ZM20.0717 19.1066C20.0717 19.686 19.591 20.1574 19 20.1574C18.409 20.1574 17.9282 19.686 17.9282 19.1066C17.9282 18.5271 18.409 18.0558 19 18.0558C19.591 18.0558 20.0717 18.5271 20.0717 19.1066Z" fill="#7002FE"/>
<path d="M10.0314 10.3139C10.1701 10.1785 10.2493 9.99084 10.2493 9.7995C10.2493 9.60816 10.1701 9.42118 10.0314 9.28513C9.8934 9.14988 9.70271 9.07196 9.50698 9.07196C9.31192 9.07196 9.12056 9.14981 8.98261 9.28513C8.84472 9.42045 8.76529 9.60816 8.76529 9.7995C8.76529 9.99157 8.84465 10.1785 8.98261 10.3139C9.12056 10.4491 9.31192 10.527 9.50698 10.527C9.70271 10.527 9.8934 10.4491 10.0314 10.3139Z" fill="#7002FE"/>
<path d="M24.1377 2.65216C24.3336 2.65216 24.525 2.57497 24.6629 2.439C24.8008 2.30368 24.8803 2.11664 24.8803 1.92465C24.8803 1.73332 24.8009 1.54562 24.6629 1.4103C24.525 1.27506 24.3336 1.19714 24.1377 1.19714C23.9427 1.19714 23.7513 1.27499 23.6134 1.4103C23.4755 1.54562 23.396 1.73332 23.396 1.92465C23.396 2.11671 23.4754 2.30368 23.6134 2.439C23.7513 2.57497 23.9427 2.65216 24.1377 2.65216Z" fill="#7002FE"/>
</svg>
