<svg width="33" height="35" viewBox="0 0 33 35" fill="none" xmlns="http://www.w3.org/2000/svg">
<path d="M23.7171 34.9034C22.6518 34.9034 21.5956 34.7085 20.5628 34.3202C16.0127 32.6096 11.7892 29.8235 8.34886 26.2631C4.90848 22.7026 2.21637 18.3316 0.56353 13.6227C0.0323906 12.1094 -0.124354 10.5472 0.0978081 8.97949C0.30592 7.511 0.855556 6.0854 1.68736 4.85676C2.52283 3.62273 3.63667 2.59633 4.90842 1.88857C6.26459 1.13384 7.74483 0.751114 9.30815 0.751114C9.79437 0.751114 10.2146 1.1027 10.3165 1.59468L11.9351 9.41198C12.0084 9.76596 11.9033 10.1343 11.656 10.3903L8.89019 13.2526C11.4993 18.6211 15.7329 23.0025 20.9203 25.7027L23.686 22.8404C23.9333 22.5844 24.2893 22.4758 24.6313 22.5515L32.1849 24.2266C32.6603 24.3321 33 24.767 33 25.2701C33 26.888 32.6302 28.42 31.9009 29.8236C31.217 31.1397 30.2252 32.2924 29.0328 33.1571C27.8457 34.0179 26.4682 34.5867 25.0492 34.8021C24.6045 34.8697 24.1599 34.9034 23.7171 34.9034ZM8.48421 2.93224C6.42211 3.16783 4.59183 4.2864 3.37642 6.08166C2.00968 8.10037 1.69097 10.5833 2.50202 12.894C5.6797 21.947 12.5193 29.0254 21.2669 32.314C23.4996 33.1534 25.8988 32.8236 27.8494 31.4091C29.5841 30.1513 30.665 28.2571 30.8926 26.123L24.7478 24.7603L21.8594 27.7496C21.552 28.0677 21.085 28.1522 20.6917 27.9609C14.5566 24.978 9.59057 19.8385 6.70833 13.4893C6.52355 13.0822 6.60515 12.5989 6.91251 12.2809L9.80094 9.29158L8.48421 2.93224Z" fill="#00A552"/>
<path d="M31.9688 18.8938C31.3994 18.8938 30.9376 18.416 30.9376 17.8266C30.9376 9.58808 24.4612 2.88555 16.5006 2.88555C15.9311 2.88555 15.4694 2.4077 15.4694 1.81833C15.4694 1.22896 15.9311 0.751114 16.5006 0.751114C20.9079 0.751114 25.0512 2.52723 28.1675 5.75236C31.2839 8.9775 33.0001 13.2655 33.0001 17.8266C33.0001 18.416 32.5384 18.8938 31.9688 18.8938Z" fill="#00A552"/>
<path d="M27.8439 18.8938C27.2744 18.8938 26.8127 18.416 26.8127 17.8266C26.8127 11.942 22.1867 7.15441 16.5006 7.15441C15.9311 7.15441 15.4694 6.67656 15.4694 6.08719C15.4694 5.49782 15.9311 5.01997 16.5006 5.01997C23.3239 5.01997 28.8751 10.765 28.8751 17.8266C28.8751 18.416 28.4135 18.8938 27.8439 18.8938Z" fill="#00A552"/>
<path d="M23.719 18.8938C23.1495 18.8938 22.6878 18.416 22.6878 17.8266C22.6878 14.2958 19.9123 11.4233 16.5006 11.4233C15.9311 11.4233 15.4694 10.9454 15.4694 10.3561C15.4694 9.7667 15.9311 9.28885 16.5006 9.28885C21.0495 9.28885 24.7502 13.1188 24.7502 17.8266C24.7502 18.416 24.2886 18.8938 23.719 18.8938Z" fill="#00A552"/>
</svg>
