<svg width="40" height="33" viewBox="0 0 40 33" fill="none" xmlns="http://www.w3.org/2000/svg">
<path d="M36.859 32.5915C36.5532 32.5915 36.2476 32.4948 35.9869 32.3014L34.1863 30.9655L32.3858 32.3014C31.8653 32.6874 31.1654 32.6882 30.6441 32.3033C30.1228 31.9182 29.9072 31.2414 30.1077 30.6189L30.8012 28.4655L28.9884 27.133C28.4587 26.7436 28.2465 26.0835 28.4478 25.4514C28.6491 24.8192 29.2016 24.4108 29.8553 24.4108H32.0942L32.7787 22.2583C32.9799 21.6259 33.5323 21.2172 34.1863 21.2172C34.8403 21.2172 35.3929 21.6258 35.5941 22.2583L36.2787 24.4108H38.5175C39.1712 24.4108 39.7237 24.8192 39.925 25.4513C40.1264 26.0834 39.9142 26.7434 39.3845 27.1329L37.5717 28.4655L38.2652 30.6189C38.4656 31.2414 38.25 31.9182 37.7288 32.3033C37.4683 32.4954 37.1637 32.5915 36.859 32.5915ZM34.1863 29.1883C34.348 29.1883 34.5098 29.2392 34.6469 29.341L36.7002 30.8644L35.9093 28.4087C35.8036 28.0806 35.9187 27.7206 36.194 27.5182L38.2611 25.9988H35.71C35.3712 25.9988 35.071 25.7767 34.9667 25.4489L34.1863 22.995L33.406 25.449C33.3017 25.7767 33.0015 25.9988 32.6627 25.9988H30.1117L32.1788 27.5182C32.454 27.7206 32.5691 28.0806 32.4635 28.4087L31.6726 30.8644L33.7258 29.341C33.8629 29.2392 34.0246 29.1883 34.1863 29.1883Z" fill="#7002FE"/>
<path d="M8.48609 32.5915C8.18033 32.5915 7.87473 32.4948 7.61398 32.3014L5.81351 30.9655L4.01297 32.3013C3.49247 32.6873 2.79253 32.6881 2.27125 32.3032C1.74996 31.9181 1.53436 31.2413 1.73481 30.6189L2.42834 28.4654L0.615455 27.1329C0.0858145 26.7435 -0.126354 26.0834 0.0749561 25.4512C0.276266 24.8191 0.828717 24.4107 1.48249 24.4107H3.72135L4.40582 22.2583C4.60705 21.6257 5.15958 21.2171 5.81359 21.2171H5.81367C6.46759 21.2172 7.02004 21.6258 7.22128 22.2583L7.90582 24.4107H10.1447C10.7984 24.4107 11.3508 24.8193 11.5522 25.4513C11.7536 26.0834 11.5413 26.7435 11.0116 27.1329L9.19883 28.4655L9.89237 30.6189C10.0927 31.2414 9.87721 31.9182 9.35593 32.3033C9.09548 32.4954 8.79082 32.5915 8.48609 32.5915ZM5.81351 29.1883C5.97514 29.1883 6.13692 29.2392 6.27409 29.341L8.32735 30.8644L7.53648 28.4087C7.43079 28.0805 7.54586 27.7206 7.82114 27.5182L9.88823 25.9987H7.33712C6.99825 25.9987 6.69804 25.7766 6.59375 25.4489L5.81343 22.995L5.03311 25.4489C4.92882 25.7766 4.62861 25.9987 4.28974 25.9987H1.73871L3.80588 27.5182C4.08109 27.7206 4.19615 28.0805 4.09054 28.4087L3.29967 30.8644L5.35293 29.341C5.4901 29.2392 5.65181 29.1883 5.81351 29.1883Z" fill="#7002FE"/>
<path d="M25.2031 32.5953C24.7637 32.5953 24.3245 32.4532 23.9414 32.169L19.9999 29.2449L16.0585 32.169C15.2936 32.7364 14.3043 32.7375 13.5384 32.1717C12.7723 31.606 12.4677 30.6495 12.7623 29.7348L14.2804 25.021L10.3136 22.1049C9.54723 21.5415 9.24031 20.5865 9.53161 19.6718C9.82291 18.7572 10.6222 18.1662 11.568 18.1662H16.465L17.9633 13.4551C18.2543 12.5401 19.0537 11.9486 19.9999 11.9486C20.9462 11.9486 21.7456 12.54 22.0366 13.4552L23.5349 18.1662H28.4319C29.3777 18.1662 30.1771 18.7572 30.4683 19.6718C30.7596 20.5865 30.4527 21.5415 29.6862 22.1049L25.7195 25.021L27.2376 29.7348C27.5322 30.6495 27.2276 31.606 26.4615 32.1717C26.079 32.4541 25.6411 32.5953 25.2031 32.5953ZM19.9999 27.4677C20.1615 27.4677 20.3233 27.5186 20.4605 27.6204L24.8625 30.8862C25.1779 31.1203 25.4632 30.946 25.5431 30.887C25.623 30.828 25.8742 30.6061 25.7528 30.2289L24.0573 24.9642C23.9516 24.636 24.0667 24.276 24.342 24.0737L28.7707 20.8181C29.0868 20.5856 29.0123 20.2563 28.9819 20.1609C28.9515 20.0656 28.8221 19.7543 28.4319 19.7543H22.9664C22.6275 19.7543 22.3273 19.5322 22.223 19.2045L20.55 13.9436C20.43 13.5661 20.0987 13.5367 19.9999 13.5367C19.9012 13.5367 19.5699 13.5661 19.4499 13.9435L17.7769 19.2045C17.6726 19.5322 17.3724 19.7543 17.0335 19.7543H11.568C11.1778 19.7543 11.0483 20.0656 11.018 20.1609C10.9876 20.2563 10.913 20.5857 11.2292 20.8181L15.6579 24.0737C15.9331 24.276 16.0482 24.636 15.9426 24.9642L14.2471 30.2289C14.1256 30.6061 14.3768 30.828 14.4568 30.887C14.5366 30.946 14.8219 31.1203 15.1374 30.8862L19.5394 27.6204C19.6765 27.5186 19.8382 27.4677 19.9999 27.4677Z" fill="#7002FE"/>
<path d="M19.9999 8.66077C19.5685 8.66077 19.2187 8.3052 19.2187 7.86673V4.88083C19.2187 4.44236 19.5685 4.08679 19.9999 4.08679C20.4313 4.08679 20.7811 4.44236 20.7811 4.88083V7.86673C20.7811 8.30528 20.4313 8.66077 19.9999 8.66077Z" fill="#7002FE"/>
<path d="M27.9679 9.24225C27.768 9.24225 27.5681 9.16467 27.4156 9.00968C27.1105 8.69961 27.1105 8.19683 27.4156 7.88668L31.5702 3.66371C31.8753 3.35372 32.3698 3.35372 32.675 3.66371C32.9801 3.97377 32.9801 4.47655 32.675 4.7867L28.5204 9.00968C28.3677 9.16475 28.1679 9.24225 27.9679 9.24225Z" fill="#7002FE"/>
<path d="M12.0318 9.24225C11.8318 9.24225 11.632 9.16467 11.4795 9.00968L7.32486 4.7867C7.01981 4.47663 7.01981 3.97385 7.32486 3.66371C7.62998 3.35372 8.12447 3.35372 8.42967 3.66371L12.5843 7.88668C12.8893 8.19675 12.8893 8.69953 12.5843 9.00968C12.4316 9.16475 12.2318 9.24225 12.0318 9.24225Z" fill="#7002FE"/>
<path d="M20.0046 2.10175C19.7991 2.10175 19.5976 2.01674 19.4524 1.86891C19.3071 1.72123 19.2234 1.51627 19.2234 1.30734C19.2234 1.09834 19.307 0.893459 19.4524 0.7457C19.5984 0.597941 19.7991 0.512939 20.0046 0.512939C20.21 0.512939 20.4116 0.597861 20.5569 0.7457C20.7029 0.893459 20.7864 1.09834 20.7864 1.30734C20.7864 1.51627 20.7029 1.72123 20.5569 1.86891C20.4116 2.01667 20.2108 2.10175 20.0046 2.10175Z" fill="#7002FE"/>
</svg>
