<svg width="26" height="42" viewBox="0 0 26 42" fill="none" xmlns="http://www.w3.org/2000/svg">
<path d="M13.0182 19.6587C16.9108 19.6587 20.0777 16.3812 20.0777 12.3526C20.0777 10.7101 19.5632 9.15853 18.5898 7.86571C18.3299 7.52045 17.8486 7.45871 17.515 7.72764C17.1813 7.99673 17.1216 8.4948 17.3816 8.84006C18.1433 9.85182 18.546 11.0664 18.546 12.3526C18.546 15.5071 16.0662 18.0734 13.0182 18.0734C9.97008 18.0734 7.49035 15.5071 7.49035 12.3526C7.49035 9.19808 9.97008 6.63178 13.0182 6.63178C13.4411 6.63178 13.784 6.27685 13.784 5.83918C13.784 5.4015 13.4411 5.04657 13.0182 5.04657C9.12548 5.04657 5.95862 8.32407 5.95862 12.3526C5.95854 16.3812 9.12548 19.6587 13.0182 19.6587Z" fill="#00A552"/>
<path d="M15.8251 7.31441C16.1897 7.31441 16.5021 7.05115 16.5756 6.67688C16.6578 6.25075 16.393 5.83231 15.9744 5.74437C15.5114 5.64747 15.0592 6.01461 15.0592 6.52225C15.0592 6.95829 15.3999 7.31441 15.8251 7.31441Z" fill="#00A552"/>
<path d="M24.875 26.9553C24.7577 25.8141 24.0602 24.8745 23.1042 24.4363C22.3142 24.0744 21.7285 24.1824 20.7049 24.1701H19.5194L22.8081 18.4927C25.5052 13.8369 24.7984 7.90429 21.0894 4.06577C16.639 -0.539991 9.39743 -0.539991 4.94697 4.06577C1.23803 7.90429 0.531205 13.8368 3.22828 18.4927L6.517 24.1701H3.97125C2.40636 24.1701 1.11809 25.3862 0.974566 26.9988C-0.0689281 38.722 -0.00122522 37.8688 0.00191484 38.1129C0.0223635 39.6895 1.17676 41.0039 2.69639 41.1702C2.99439 41.2028 1.74878 41.1813 22.9906 41.1874C24.6505 41.1874 25.9997 39.7927 25.9999 38.0723C25.9998 37.7608 26.0343 38.3003 24.875 26.9553ZM21.8824 25.7552C22.64 25.7552 23.2717 26.3432 23.3518 27.1228L23.5092 28.6558C23.2232 28.8255 22.8976 28.9163 22.564 28.9163C20.9785 28.9163 20.1074 27.0295 21.0462 25.7552H21.8824ZM13.0181 2.19585C20.7062 2.19585 25.4293 10.8847 21.4944 17.6776L14.8141 29.2099C14.0011 30.6131 12.0358 30.6142 11.2222 29.2099L4.5419 17.6776C0.60404 10.8797 5.33465 2.19585 13.0181 2.19585ZM3.9711 25.7552H7.43504L9.90833 30.0249C11.3158 32.4548 14.719 32.4568 16.1277 30.0249L18.601 25.7552H19.3244C18.5335 28.0658 20.1947 30.5015 22.5639 30.5015C22.9465 30.5015 23.3228 30.4346 23.6789 30.308L24.1522 34.9155L22.0465 33.4543C21.01 32.7349 19.6915 32.684 18.6059 33.3207L14.9314 35.476C14.5007 35.159 10.3944 32.1359 9.80548 31.7023C8.532 30.7648 6.84954 30.7074 5.51915 31.556L1.90157 33.8638L2.49972 27.1441C2.57018 26.3524 3.20278 25.7552 3.9711 25.7552ZM23.3014 39.569C23.0125 39.6319 24.2579 39.5903 3.01085 39.6022C2.13838 39.6022 1.45967 38.8284 1.53947 37.9327L1.72588 35.8382L6.32293 32.9057C7.12839 32.392 8.14684 32.4267 8.91761 32.9942C9.60505 33.5003 15.653 37.9528 16.4475 38.5378C16.7916 38.791 17.2699 38.7088 17.5155 38.3514C17.7608 37.9946 17.6801 37.4998 17.3354 37.2461L16.3088 36.4902L19.3611 34.7C19.9393 34.3608 20.6414 34.388 21.1935 34.771L24.3632 36.9705C24.4576 37.9134 24.4681 37.9336 24.4685 38.0741C24.4704 38.81 23.9606 39.425 23.3014 39.569Z" fill="#00A552"/>
</svg>
