<svg width="37" height="38" viewBox="0 0 37 38" fill="none" xmlns="http://www.w3.org/2000/svg">
<path d="M11.3876 9.6162C11.2568 9.48079 11.0754 9.40289 10.8905 9.40289C10.7055 9.40289 10.5241 9.48079 10.3933 9.6162C10.2626 9.7516 10.1873 9.93943 10.1873 10.1309C10.1873 10.3224 10.2626 10.5102 10.3933 10.6456C10.5241 10.7811 10.7055 10.8589 10.8905 10.8589C11.0754 10.8589 11.2568 10.781 11.3876 10.6456C11.5183 10.5102 11.5936 10.3224 11.5936 10.1309C11.5936 9.93943 11.5184 9.7516 11.3876 9.6162Z" fill="#7002FE"/>
<path d="M35.7959 3.52075L34.9264 2.61992L35.7956 1.72041C36.0702 1.43624 36.0702 0.975456 35.7956 0.691215C35.5209 0.407046 35.0758 0.407046 34.8011 0.691215L33.9324 1.59015L33.0758 0.702494C32.9439 0.565977 32.7652 0.489131 32.5787 0.489059L20.6775 0.482218C20.6768 0.482218 20.6762 0.482218 20.6756 0.482218C19.7358 0.482218 18.8523 0.860916 18.1877 1.54867L12.2489 7.69486C11.9743 7.97903 11.9743 8.43982 12.2489 8.72406C12.5235 9.00823 12.9686 9.00823 13.2434 8.72406L19.1822 2.57786C19.5812 2.16496 20.1114 1.9377 20.6756 1.9377C20.676 1.9377 20.6764 1.9377 20.6768 1.9377L32.2866 1.9444L32.9382 2.61941L30.3292 5.31949C29.2228 4.6337 27.7643 4.78324 26.8119 5.7687C26.2679 6.3318 25.9683 7.08039 25.9683 7.87665C25.9683 8.6729 26.2679 9.42149 26.8119 9.98459C27.3735 10.5657 28.1112 10.8563 28.8488 10.8563C29.5864 10.8563 30.324 10.5657 30.8857 9.98459C31.8365 9.00051 31.9819 7.49402 31.3227 6.34963L33.9321 3.64919L34.5952 4.33622L34.5887 16.3351C34.5883 16.9184 34.3687 17.4669 33.9701 17.8795L16.8115 35.637C16.4125 36.0498 15.8822 36.2771 15.3181 36.2771C14.754 36.2771 14.2236 36.0498 13.8247 35.637L2.02495 23.4251C1.62598 23.0123 1.40631 22.4634 1.40631 21.8797C1.40631 21.2959 1.62598 20.747 2.02495 20.3342L9.60453 12.4899C9.87912 12.2058 9.87912 11.745 9.60453 11.4607C9.32988 11.1766 8.88478 11.1766 8.61006 11.4607L1.03047 19.305C0.365992 19.9926 0 20.9071 0 21.8797C0 22.8522 0.365992 23.7667 1.03047 24.4543L12.8303 36.6662C13.5162 37.376 14.4171 37.731 15.3181 37.731C16.2191 37.731 17.12 37.376 17.8059 36.6662L34.9645 18.9085C35.6284 18.2213 35.9944 17.3076 35.9949 16.3358L36.0015 4.03538C36.0017 3.8424 35.9276 3.65727 35.7959 3.52075ZM29.8912 8.95532C29.6127 9.24349 29.2425 9.40221 28.8488 9.40221C28.455 9.40221 28.0849 9.24349 27.8064 8.95532C27.2316 8.3605 27.2316 7.39258 27.8064 6.79775C28.0939 6.50026 28.4712 6.35159 28.8488 6.35159C28.991 6.35159 29.1331 6.37277 29.2705 6.41498L28.4589 7.25489C28.1843 7.53906 28.1843 7.99985 28.4589 8.28409C28.5963 8.42621 28.7762 8.49723 28.9561 8.49723C29.1361 8.49723 29.316 8.42621 29.4533 8.28409L30.2627 7.4465C30.4088 7.96455 30.2852 8.54759 29.8912 8.95532Z" fill="#7002FE"/>
<path d="M30.0359 15.1294L21.8414 6.64873C20.7559 5.5253 18.9895 5.52545 17.9041 6.64873L4.93643 20.0692C4.41054 20.6134 4.12091 21.3369 4.12091 22.1066C4.12091 22.8762 4.41047 23.5998 4.93636 24.144L13.1309 32.6245C13.6568 33.1688 14.3559 33.4685 15.0996 33.4685C15.8432 33.4685 16.5424 33.1688 17.0682 32.6246L30.0359 19.2041C30.5618 18.6599 30.8513 17.9364 30.8513 17.1668C30.8513 16.3971 30.5618 15.6736 30.0359 15.1294ZM29.0414 18.1749L16.0738 31.5955C15.8136 31.8648 15.4676 32.0131 15.0996 32.0131C14.7317 32.0131 14.3856 31.8648 14.1255 31.5955L5.93083 23.1149C5.67059 22.8455 5.52729 22.4875 5.52729 22.1066C5.52722 21.7258 5.67059 21.3676 5.93083 21.0984L18.8986 7.67792C19.1672 7.39994 19.5199 7.26095 19.8728 7.26095C20.2255 7.26095 20.5784 7.40001 20.8469 7.67792L29.0414 16.1585C29.3017 16.4278 29.445 16.7859 29.445 17.1668C29.445 17.5476 29.3017 17.9057 29.0414 18.1749Z" fill="#7002FE"/>
<path d="M22.9283 15.0361C23.2029 14.752 23.2029 14.2912 22.9283 14.0069C22.6537 13.7228 22.2086 13.7228 21.9339 14.0069L21.529 14.426C20.4479 13.7349 19.0607 13.8276 18.1838 14.735C17.6725 15.2641 17.411 15.9827 17.4473 16.7582C17.4823 17.5071 17.794 18.2221 18.3247 18.7713C18.3247 18.7714 18.3248 18.7714 18.3248 18.7715C18.8903 19.357 18.9535 20.2443 18.4655 20.7493C17.9773 21.2544 17.1199 21.189 16.5541 20.6036C15.9884 20.018 15.9252 19.1307 16.4133 18.6255C16.6879 18.3413 16.6879 17.8805 16.4133 17.5963C16.1386 17.3121 15.6935 17.3121 15.4188 17.5963C14.542 18.5037 14.4524 19.9394 15.1202 21.0583L14.6398 21.5554C14.3652 21.8395 14.3652 22.3003 14.6398 22.5846C14.7775 22.7268 14.9574 22.7979 15.1373 22.7979C15.3173 22.7979 15.4972 22.7268 15.6345 22.5847L16.1152 22.0872C16.5876 22.3892 17.1182 22.5421 17.6394 22.5421C18.3108 22.5421 18.9664 22.2893 19.46 21.7785C20.4962 20.7061 20.4332 18.8959 19.3198 17.7428C19.3195 17.7426 19.3194 17.7424 19.3192 17.7422C19.0361 17.4492 18.8702 17.0748 18.852 16.6877C18.8352 16.3274 18.951 15.9994 19.1784 15.7642C19.6663 15.2591 20.5236 15.3245 21.0895 15.9098C21.0895 15.9098 21.0895 15.9099 21.0896 15.91C21.0897 15.91 21.0897 15.91 21.0897 15.91C21.6554 16.4956 21.7184 17.3828 21.2304 17.8879C20.9558 18.1721 20.9558 18.6329 21.2304 18.9171C21.3677 19.0593 21.5476 19.1303 21.7276 19.1303C21.9075 19.1303 22.0874 19.0593 22.2248 18.9171C23.1016 18.0096 23.1913 16.574 22.5235 15.4552L22.9283 15.0361Z" fill="#7002FE"/>
<path d="M15.8116 27.1004L12.2001 23.3627C11.9256 23.0788 11.4805 23.0786 11.2057 23.3627C10.9311 23.6469 10.9311 24.1077 11.2057 24.3919L14.8172 28.1296C14.9545 28.2716 15.1345 28.3427 15.3144 28.3427C15.4943 28.3427 15.6743 28.2716 15.8116 28.1296C16.0862 27.8454 16.0862 27.3846 15.8116 27.1004Z" fill="#7002FE"/>
<path d="M10.2738 21.3693C10.143 21.234 9.96226 21.156 9.7767 21.156C9.59177 21.156 9.41106 21.2339 9.27957 21.3693C9.14879 21.5047 9.07355 21.6926 9.07355 21.8848C9.07355 22.0762 9.14871 22.2641 9.27957 22.3995C9.41036 22.5349 9.59177 22.6128 9.7767 22.6128C9.96233 22.6128 10.143 22.5349 10.2738 22.3995C10.4052 22.2633 10.4805 22.0762 10.4805 21.8848C10.4805 21.6926 10.4052 21.5055 10.2738 21.3693Z" fill="#7002FE"/>
</svg>
