<svg width="22" height="38" viewBox="0 0 22 38" fill="none" xmlns="http://www.w3.org/2000/svg">
<path d="M21.2254 17.4076L5.20501 0.828106C4.83447 0.444333 4.33984 0.23291 3.81243 0.23291C3.28502 0.23291 2.79039 0.444333 2.41986 0.828106L1.24007 2.04879C0.472368 2.8442 0.472368 4.13697 1.24007 4.93117L14.6928 18.8536L1.22514 32.7915C0.854608 33.1753 0.650024 33.6869 0.650024 34.2324C0.650024 34.7785 0.854608 35.2901 1.22514 35.6742L2.40493 36.8946C2.77576 37.2783 3.2701 37.4897 3.79751 37.4897C4.32492 37.4897 4.81955 37.2783 5.19008 36.8946L21.2254 20.2999C21.5969 19.915 21.8008 19.4009 21.7997 18.8545C21.8008 18.306 21.5969 17.7922 21.2254 17.4076Z" fill="black"/>
</svg>
