<svg width="22" height="22" viewBox="0 0 22 22" fill="none" xmlns="http://www.w3.org/2000/svg">
<path d="M19.5206 9.30787H12.7042V2.25341C12.7042 1.27988 11.9425 0.489746 11.0001 0.489746C10.0577 0.489746 9.29592 1.27988 9.29592 2.25341V9.30787H2.47953C1.53714 9.30787 0.775391 10.098 0.775391 11.0715C0.775391 12.0451 1.53714 12.8352 2.47953 12.8352H9.29592V19.8897C9.29592 20.8632 10.0577 21.6533 11.0001 21.6533C11.9425 21.6533 12.7042 20.8632 12.7042 19.8897V12.8352H19.5206C20.463 12.8352 21.2247 12.0451 21.2247 11.0715C21.2247 10.098 20.463 9.30787 19.5206 9.30787Z" fill="#272727"/>
</svg>
