<svg width="17" height="30" viewBox="0 0 17 30" fill="none" xmlns="http://www.w3.org/2000/svg">
<path d="M0.446632 15.9919L12.9069 28.8872C13.1951 29.1857 13.5799 29.3501 13.9901 29.3501C14.4003 29.3501 14.785 29.1857 15.0732 28.8872L15.9908 27.9377C16.5879 27.3191 16.5879 26.3136 15.9908 25.6959L5.52755 14.8672L16.0024 4.02655C16.2906 3.72806 16.4497 3.33014 16.4497 2.90585C16.4497 2.48108 16.2906 2.08317 16.0024 1.78444L15.0848 0.835247C14.7964 0.536755 14.4119 0.372314 14.0017 0.372314C13.5915 0.372314 13.2068 0.536755 12.9186 0.835247L0.446632 13.7423C0.157757 14.0417 -0.000907898 14.4415 3.8147e-06 14.8665C-0.000907898 15.2932 0.157757 15.6927 0.446632 15.9919Z" fill="black"/>
</svg>
