<svg width="30" height="32" viewBox="0 0 30 32" fill="none" xmlns="http://www.w3.org/2000/svg">
<path d="M14.5405 20.8879C13.6827 20.8879 12.9883 21.6277 12.9883 22.5155C12.9883 23.3821 13.6623 24.1431 14.5405 24.1431C15.4187 24.1431 16.1132 23.3822 16.1132 22.5155C16.1132 21.6277 15.3984 20.8879 14.5405 20.8879Z" fill="white"/>
<path d="M14.806 8.56482C12.0488 8.56482 10.7825 10.2558 10.7825 11.3972C10.7825 12.2216 11.4565 12.602 12.008 12.602C13.1108 12.602 12.6615 10.9745 14.7448 10.9745C15.766 10.9745 16.583 11.4395 16.583 12.4118C16.583 13.5533 15.4392 14.2085 14.7652 14.8004C14.1729 15.3288 13.3968 16.1955 13.3968 18.0133C13.3968 19.1124 13.6827 19.4294 14.5201 19.4294C15.5209 19.4294 15.7251 18.9645 15.7251 18.5628C15.7251 17.4637 15.7456 16.8296 16.8689 15.9207C17.4203 15.4768 19.1564 14.0395 19.1564 12.0525C19.1564 10.0656 17.4203 8.56482 14.806 8.56482Z" fill="white"/>
<path d="M15 0.0751953C6.70992 0.0751953 0 7.01825 0 15.5989V29.9099C0 30.5797 0.524648 31.1227 1.17188 31.1227H15C23.29 31.1227 30 24.1796 30 15.5989C30 7.0194 23.2912 0.0751953 15 0.0751953ZM15 28.6971H2.34375V15.5989C2.34375 8.35996 8.00432 2.50078 15 2.50078C21.9947 2.50078 27.6562 8.35899 27.6562 15.5989C27.6562 22.8379 21.9957 28.6971 15 28.6971Z" fill="white"/>
</svg>
