<?xml version="1.0" encoding="UTF-8"?> <svg xmlns="http://www.w3.org/2000/svg" width="320" height="375" viewBox="0 0 320 375" fill="none"> <g clip-path="url(#clip0)"> <rect width="320" height="375" fill="url(#paint0_linear)"></rect> <circle cx="235" cy="274" r="133.5" stroke="white" stroke-opacity="0.1" stroke-width="45"></circle> <circle cx="235.5" cy="274.5" r="208" stroke="white" stroke-opacity="0.1" stroke-width="55"></circle> <circle cx="235.735" cy="274.734" r="58.7345" stroke="white" stroke-opacity="0.1" stroke-width="40"></circle> <circle cx="6.98387" cy="-0.467743" r="10.9839" transform="rotate(-90 6.98387 -0.467743)" fill="white"></circle> <circle cx="41.1559" cy="-0.467743" r="10.9839" transform="rotate(-90 41.1559 -0.467743)" fill="white"></circle> <circle cx="75.328" cy="-0.467743" r="10.9839" transform="rotate(-90 75.328 -0.467743)" fill="white"></circle> <circle cx="109.5" cy="-0.467743" r="10.9839" transform="rotate(-90 109.5 -0.467743)" fill="white"></circle> <circle cx="143.672" cy="-0.467743" r="10.9839" transform="rotate(-90 143.672 -0.467743)" fill="white"></circle> <circle cx="177.844" cy="-0.467743" r="10.9839" transform="rotate(-90 177.844 -0.467743)" fill="white"></circle> <circle cx="212.016" cy="-0.467743" r="10.9839" transform="rotate(-90 212.016 -0.467743)" fill="white"></circle> <circle cx="245.984" cy="-0.467743" r="10.9839" transform="rotate(-90 245.984 -0.467743)" fill="white"></circle> <circle cx="280.156" cy="-0.467743" r="10.9839" transform="rotate(-90 280.156 -0.467743)" fill="white"></circle> <circle cx="314.328" cy="-0.467743" r="10.9839" transform="rotate(-90 314.328 -0.467743)" fill="white"></circle> <circle cx="6.98387" cy="373.984" r="10.9839" transform="rotate(-90 6.98387 373.984)" fill="white"></circle> <circle cx="41.1559" cy="373.984" r="10.9839" transform="rotate(-90 41.1559 373.984)" fill="white"></circle> <circle cx="75.328" cy="373.984" r="10.9839" transform="rotate(-90 75.328 373.984)" fill="white"></circle> <circle cx="109.5" cy="373.984" r="10.9839" transform="rotate(-90 109.5 373.984)" fill="white"></circle> <circle cx="143.672" cy="373.984" r="10.9839" transform="rotate(-90 143.672 373.984)" fill="white"></circle> <circle cx="177.844" cy="373.984" r="10.9839" transform="rotate(-90 177.844 373.984)" fill="white"></circle> <circle cx="212.016" cy="373.984" r="10.9839" transform="rotate(-90 212.016 373.984)" fill="white"></circle> <circle cx="245.984" cy="373.984" r="10.9839" transform="rotate(-90 245.984 373.984)" fill="white"></circle> <circle cx="280.156" cy="373.984" r="10.9839" transform="rotate(-90 280.156 373.984)" fill="white"></circle> <circle cx="314.328" cy="373.984" r="10.9839" transform="rotate(-90 314.328 373.984)" fill="white"></circle> </g> <defs> <linearGradient id="paint0_linear" x1="136.5" y1="-24.5" x2="160" y2="375" gradientUnits="userSpaceOnUse"> <stop stop-color="#7002FE"></stop> <stop offset="1" stop-color="#3459A2"></stop> </linearGradient> <clipPath id="clip0"> <rect width="320" height="375" fill="white"></rect> </clipPath> </defs> </svg> 